<svg version="1.1" id="Layer_1" xmlns="http://www.w3.org/2000/svg" xmlns:xlink="http://www.w3.org/1999/xlink" x="0px" y="0px"
	 width="100%" viewBox="0 0 542 276" enable-background="new 0 0 542 276" xml:space="preserve">
<path fill="#040404" opacity="1.000000" stroke="none" 
	d="
M94.999840,74.676842 
	C77.839020,74.676186 61.177097,74.792755 44.517761,74.635521 
	C32.510414,74.522194 23.177773,67.954918 19.475613,57.492481 
	C15.973592,47.595646 18.804277,36.774632 26.730917,29.766264 
	C32.282440,24.857864 38.905270,23.288500 46.137108,23.302572 
	C72.794312,23.354445 99.451675,23.323154 126.108978,23.323153 
	C251.231705,23.323153 376.354431,23.319132 501.477142,23.328447 
	C516.490845,23.329565 526.458801,30.687172 529.425842,43.858765 
	C532.496460,57.490063 523.111633,71.664513 509.307343,74.018059 
	C506.210114,74.546127 503.010406,74.650620 499.857849,74.651314 
	C365.071838,74.681007 230.285843,74.676849 94.999840,74.676842 
z"/>
<path fill="#010101" opacity="1.000000" stroke="none" 
	d="
M238.000198,202.664276 
	C326.300079,202.664291 414.099976,202.657013 501.899841,202.671799 
	C515.860840,202.674149 525.654236,209.372437 528.966064,221.049835 
	C533.516846,237.095551 522.301147,252.713547 505.421600,253.819168 
	C504.259613,253.895294 503.090302,253.875473 501.924408,253.875488 
	C349.982300,253.877701 198.040192,253.881165 46.098091,253.871948 
	C31.450735,253.871063 21.223141,246.087082 18.443497,232.929855 
	C15.451797,218.768890 26.145830,204.229675 40.584270,202.896652 
	C42.901104,202.682755 45.242500,202.673660 47.572559,202.673248 
	C110.881767,202.662033 174.190979,202.664276 238.000198,202.664276 
z"/>
</svg>