<svg width="200" height="200" viewBox="0 0 200 200" fill="none" xmlns="http://www.w3.org/2000/svg">
    <path d="M128.748 95.5215C128.975 96.9832 129.093 98.4835 129.093 100.009C129.093 101.988 128.895 103.921 128.518 105.79" stroke="white" stroke-width="0.75" stroke-linecap="round" stroke-linejoin="round"/>
    <path d="M69.1426 78.83L75.9898 83.6038C81.229 75.9469 90.0322 70.9231 100.009 70.9231C109.985 70.9231 118.123 75.5757 123.42 82.7479L137.935 72.3367C133.187 65.8377 126.807 60.6061 119.4 57.2422" stroke="white" stroke-width="0.75" stroke-linecap="round" stroke-linejoin="round"/>
    <path d="M71.2547 104.396C71.0374 102.965 70.9258 101.499 70.9258 100.007C70.9258 97.999 71.1297 96.0391 71.5163 94.1465" stroke="white" stroke-width="0.75" stroke-linecap="round" stroke-linejoin="round"/>
    <path d="M72.4307 81.2444C69.9803 84.8392 68.2147 88.9379 67.3203 93.3539L79.4433 95.6485C81.4512 86.1336 89.8948 78.9902 100.008 78.9902C110.121 78.9902 119.145 86.6317 120.757 96.639L132.976 94.9291C132.147 89.4976 130.006 84.4968 126.889 80.2616" stroke="white" stroke-width="0.75" stroke-linecap="round" stroke-linejoin="round"/>
    <path d="M127.635 118.702C130.052 115.134 131.799 111.074 132.689 106.704L120.635 104.063C118.747 113.732 110.23 121.027 100.007 121.027C89.7847 121.027 80.7045 113.237 79.2139 103.09L67.0391 105.092C67.8565 110.439 69.9433 115.367 72.9823 119.562" stroke="white" stroke-width="0.75" stroke-linecap="round" stroke-linejoin="round"/>
    <path d="M152.667 104.206L137.332 102.848C135.882 122.193 119.726 137.439 100.007 137.439C94.4182 137.439 89.1154 136.214 84.3532 134.018L75.3711 154.051C82.876 157.479 91.2196 159.387 100.007 159.387" stroke="white" stroke-width="0.75" stroke-linecap="round" stroke-linejoin="round"/>
    <path d="M117.497 111.672L115.223 110.058C117.129 107.177 118.241 103.723 118.241 100.009C118.241 89.9401 110.078 81.7773 100.009 81.7773C95.953 81.7773 92.2063 83.1025 89.1789 85.3413L87.4883 83.1256" stroke="white" stroke-width="0.75" stroke-linecap="round" stroke-linejoin="round"/>
    <path d="M130.986 121.028L124.126 116.271C118.9 124.007 110.049 129.095 100.009 129.095C89.9686 129.095 81.6962 124.334 76.4128 117.018L62.0684 127.662C66.7864 134.124 73.1123 139.334 80.4615 142.704" stroke="white" stroke-width="0.75" stroke-linecap="round" stroke-linejoin="round"/>
    <path d="M47.334 95.989L62.694 97.0237C64.2134 77.7459 80.3389 62.5763 100.007 62.5763C105.537 62.5763 110.788 63.7746 115.511 65.9288L124.48 45.8893C117.017 42.5099 108.732 40.627 100.007 40.627" stroke="white" stroke-width="0.75" stroke-linecap="round" stroke-linejoin="round"/>
    <path d="M103.137 117.972L102.535 114.741C109.586 113.543 114.956 107.403 114.956 100.01C114.956 92.6165 109.713 86.6214 102.785 85.3212L103.414 82.0957" stroke="white" stroke-width="0.75" stroke-linecap="round" stroke-linejoin="round"/>
    <path d="M96.595 117.919L97.1528 114.68C90.2652 113.349 85.0645 107.287 85.0645 100.009C85.0645 92.7311 90.421 86.4898 97.4605 85.28L96.9008 82.041" stroke="white" stroke-width="0.75" stroke-linecap="round" stroke-linejoin="round"/>
    <path d="M112.682 116.776L110.997 114.557C107.941 116.869 104.134 118.24 100.009 118.24C89.9401 118.24 81.7773 110.077 81.7773 100.009C81.7773 96.1426 82.9814 92.5575 85.0336 89.607L82.7102 88.0664" stroke="white" stroke-width="0.75" stroke-linecap="round" stroke-linejoin="round"/>
    <path d="M100.01 184.019C146.407 184.019 184.018 146.407 184.018 100.01C184.018 89.8605 182.218 80.1321 178.921 71.125L149.607 81.7881C151.694 87.4678 152.835 93.6052 152.835 100.01C152.835 129.184 129.185 152.835 100.01 152.835V184.02V184.019Z" stroke="white" stroke-width="0.75" stroke-linecap="round" stroke-linejoin="round"/>
    <path d="M50.3897 118.171C48.3163 112.507 47.1834 106.39 47.1834 100.009C47.1834 70.835 70.8331 47.1834 100.009 47.1834V16C53.6113 16 16 53.6113 16 100.009C16 110.233 17.8272 120.029 21.17 129.092L50.3897 118.171Z" stroke="white" stroke-width="0.75" stroke-linecap="round" stroke-linejoin="round"/>
</svg>