<svg width="200" height="200" viewBox="0 0 200 200" fill="none" xmlns="http://www.w3.org/2000/svg">
    <path d="M58.647 97.5754L57.0155 96.6333L55.3841 95.6921L53.7527 94.75L52.1213 93.8078L50.4897 92.8657L48.8583 91.9245L47.2269 90.9824L45.5955 90.0403L43.964 89.0982L42.3326 88.1561L40.7012 87.2148" stroke="white" stroke-width="0.75" stroke-linejoin="round"/>
    <path d="M58.7524 177.215L57.121 176.273L55.4896 175.331L53.8582 174.389L52.2267 173.447L50.5953 172.505L48.9639 171.563L47.3324 170.621L45.7009 169.679L44.0695 168.737L42.4381 167.795L40.8066 166.854" stroke="white" stroke-width="0.75" stroke-linejoin="round"/>
    <path d="M121.324 48.6358L121.685 48.4277L122.343 48.0478L122.989 47.6751L123.621 47.3094L124.24 46.9525L124.845 46.6037L125.434 46.2637L126.007 45.9316L126.565 45.6102L127.106 45.2976L127.629 44.9957L128.134 44.7044L128.621 44.4228L129.089 44.1537L129.536 43.8951L129.963 43.649L130.368 43.4143L130.752 43.193L131.114 42.984L131.453 42.7883L131.767 42.6068L132.058 42.4386L132.324 42.2854L132.565 42.1464L132.78 42.0224L132.968 41.9135L133.129 41.8205L133.262 41.7444L133.366 41.6842L133.442 41.6399L133.487 41.6142L133.503 41.6054L133.747 41.4655L133.991 41.3309L134.235 41.2007L134.477 41.0759L134.717 40.9554L134.957 40.8394L135.196 40.7279L135.434 40.6216L135.67 40.5189L135.906 40.4215L136.139 40.3285L136.372 40.2409L136.603 40.1568L136.834 40.078L137.062 40.0027L137.29 39.9328L137.515 39.8672L137.74 39.8061L137.963 39.7495L138.185 39.6972L138.405 39.6494L138.623 39.606L138.84 39.5671L139.056 39.5325L139.269 39.5015L139.481 39.4759L139.692 39.4546L139.9 39.4378L140.107 39.4245L140.312 39.4157L140.515 39.4121H140.716L140.916 39.4165L141.113 39.4245L141.309 39.4378L141.503 39.4546L141.694 39.4759L141.883 39.5015L142.071 39.5308L142.256 39.5644L142.439 39.6025L142.621 39.6441L142.8 39.691L142.976 39.7406L143.15 39.7955L143.323 39.8539L143.493 39.9159L143.66 39.9832L143.826 40.0532L143.989 40.1275L144.149 40.2064L144.307 40.2896L144.463 40.3755L144.617 40.4649L145.94 41.229L146.094 41.3176L146.248 41.4061L147.571 42.1703L147.725 42.2597L147.88 42.3482L149.202 43.1124L149.356 43.2018L149.511 43.2904L150.834 44.0545L150.988 44.143L151.142 44.2325L152.465 44.9966L152.619 45.0851L152.773 45.1746L154.097 45.9378L154.251 46.0273L154.405 46.1158L155.728 46.8799L155.882 46.9694L156.036 47.0579L157.36 47.822L157.514 47.9106L157.668 48L158.991 48.7642L159.145 48.8527L159.299 48.9421L160.623 49.7063L160.777 49.7948L160.931 49.8834L161.767 50.3889L161.934 50.489L162.094 50.5678L162.253 50.6502" stroke="white" stroke-width="0.75" stroke-linejoin="round"/>
    <path d="M87.764 115.338L87.6135 115.243L87.4656 115.145L87.3203 115.042L87.1775 114.936L87.0375 114.826L86.9001 114.712L86.7655 114.594L86.6336 114.472L86.5044 114.347L86.3781 114.218L86.2545 114.084L86.1339 113.947L86.0161 113.807L85.9013 113.662L85.7893 113.514L85.6804 113.362L85.5745 113.207L85.4716 113.047L85.3718 112.884L85.2752 112.717L85.1815 112.547L85.0911 112.373L85.0039 112.195L84.9197 112.014L84.839 111.829L84.7614 111.641L84.6872 111.449L84.6164 111.253L84.5488 111.054L84.4847 110.852L84.424 110.646L84.3667 110.436L84.3129 110.223L84.2627 110.006L84.2159 109.786L84.1728 109.563L84.1332 109.336L84.0973 109.106L84.0649 108.872L84.0363 108.635L84.0114 108.394L83.9904 108.15L83.973 107.903L83.9595 107.653L83.9497 107.399L83.9439 107.142L83.9419 106.882L83.9439 106.619L83.9497 106.355L83.9595 106.09L83.973 105.824L83.9904 105.557L84.0114 105.289L84.0363 105.02L84.0649 104.749L84.0973 104.478L84.1332 104.207L84.1728 103.934L84.2159 103.661L84.2627 103.387L84.3129 103.112L84.3667 102.837L84.424 102.561L84.4847 102.285L84.5488 102.008L84.6164 101.731L84.6872 101.454L84.7614 101.176L84.839 100.898L84.9197 100.62L85.0039 100.342L85.0911 100.064L85.1815 99.7847L85.2752 99.5067L85.3718 99.2278L85.4716 98.9497L85.5745 98.6717L85.6804 98.3937L85.7893 98.1157L85.9013 97.8385L86.0161 97.5614L86.1339 97.2851L86.2545 97.0089L86.3781 96.7326L86.5044 96.4572L86.6336 96.1827L86.7655 95.9091L86.9001 95.6355L87.0375 95.3628L87.1775 95.091L87.3203 94.82L87.4656 94.55L87.6135 94.2808L87.764 94.0125L87.917 93.7451L88.0725 93.4786L88.2305 93.2139L88.3909 92.95L88.5539 92.6879L88.7191 92.4258L88.8867 92.1664L89.0566 91.9069L89.2288 91.6502L89.4034 91.3943L89.5801 91.1401L89.7589 90.8869L89.9401 90.6354L90.1234 90.3866L90.3087 90.1387L90.4963 89.8926L90.6857 89.6482L90.8774 89.4056L91.0709 89.1656L91.2664 88.9265L91.464 88.6901L91.6634 88.4555L91.8646 88.2226L92.0677 87.9924L92.2727 87.7648L92.4795 87.539L92.688 87.315L92.8982 87.0937L93.1102 86.875L93.3238 86.658L93.5391 86.4446L93.756 86.233L93.9745 86.0241L94.1946 85.8177L94.4161 85.6141L94.6392 85.4131L94.8637 85.2156L95.0897 85.02L95.3171 84.8278L95.5458 84.6383L95.776 84.4515L96.0074 84.2682L96.2402 84.0876L96.4741 83.9105L96.7094 83.7361L96.9458 83.5652L97.1835 83.3978L97.4222 83.2331L97.6621 83.072L97.903 82.9144L98.1451 82.7603L98.388 82.6098L98.6321 82.4619L98.8771 82.3185L98.8925 82.3096L98.9382 82.2839L99.0135 82.2397L99.1179 82.1795L99.2509 82.1033L99.4116 82.0103L99.5998 81.9014L99.814 81.7775L100.055 81.6385L100.321 81.4853L100.612 81.317L100.927 81.1355L101.266 80.9398L101.627 80.7309L102.012 80.5095L102.417 80.2749L102.844 80.0287L103.291 79.7702L103.759 79.5001L104.245 79.2194L104.75 78.9281L105.274 78.6262L105.814 78.3136L106.372 77.9922L106.945 77.6602L107.535 77.3202L108.139 76.9713L108.758 76.6136L109.391 76.2488L110.036 75.876L110.694 75.4961L111.365 75.1092L112.046 74.7152L112.739 74.3158L113.441 73.9103L114.153 73.4995L114.874 73.0833L115.602 72.6618L116.339 72.2368L117.083 71.8074L117.833 71.3744L118.589 70.9379L119.35 70.4987L120.116 70.0569L120.886 69.6124L121.659 69.1661L122.434 68.7181L123.213 68.2683L123.992 67.8185L124.773 67.3678L125.553 66.9171L126.334 66.4664L127.113 66.0166L127.891 65.5677L128.667 65.1196L129.44 64.6734L130.21 64.2289L130.975 63.787L131.737 63.347L132.493 62.9105L133.243 62.4775L133.987 62.048L134.724 61.623L135.452 61.2024L136.173 60.7863L136.885 60.3746L137.587 59.9699L138.279 59.5697L138.961 59.1765L139.632 58.7896L140.289 58.4089L140.936 58.0361L141.568 57.6713L142.187 57.3136L142.791 56.9647L143.38 56.6247L143.954 56.2935L144.512 55.9712L145.052 55.6596L145.575 55.3576L146.081 55.0654L146.567 54.7848L147.035 54.5147L147.482 54.257L147.909 54.01L148.315 53.7762L148.698 53.554L149.061 53.3459L149.399 53.1502L149.714 52.9678L150.005 52.8005L150.271 52.6464L150.512 52.5074L150.726 52.3834L150.915 52.2754L151.075 52.1824L151.208 52.1054L151.312 52.0452L151.388 52.0018L151.434 51.9752L151.449 51.9664L151.694 51.8274L151.938 51.6928L152.181 51.5626L152.423 51.4369L152.664 51.3165L152.903 51.2005L153.142 51.0898L153.38 50.9827L153.616 50.8808L153.852 50.7834L154.085 50.6905L154.318 50.6019L154.55 50.5187L154.781 50.439L155.009 50.3646L155.237 50.2947L155.462 50.2283L155.687 50.1672L155.909 50.1105L156.132 50.0583L156.351 50.0104L156.57 49.9671L156.787 49.9281L157.002 49.8936L157.216 49.8635L157.428 49.8378L157.638 49.8156L157.847 49.7988L158.053 49.7864L158.259 49.7776L158.461 49.7731H158.662L158.862 49.7776L159.06 49.7864L159.255 49.7988L159.449 49.8156L159.64 49.8369L159.83 49.8626L160.017 49.8927L160.203 49.9263L160.386 49.9635L160.567 50.006L160.746 50.0521L160.923 50.1025L161.097 50.1565L161.269 50.215L161.439 50.2778L161.607 50.3443L161.768 50.3894L162.074 50.5435L162.231 50.6347L162.255 50.648L162.312 50.6816L162.409 50.7374L162.562 50.8277L162.712 50.9225L162.86 51.0207L163.005 51.1226L163.149 51.2288L163.289 51.3395L163.426 51.4537L163.561 51.5715L163.693 51.6928L163.822 51.8185L163.948 51.9478L164.071 52.0806L164.192 52.2179L164.31 52.3586L164.425 52.503L164.536 52.6508L164.645 52.8031L164.752 52.959L164.854 53.1183L164.954 53.2813L165.051 53.4477L165.145 53.6186L165.235 53.7922L165.323 53.9701L165.406 54.1508L165.487 54.3358L165.564 54.5244L165.639 54.7166L165.71 54.9123L165.777 55.1106L165.841 55.3134L165.902 55.5197L165.959 55.7295L166.013 55.9429L166.064 56.159L166.11 56.3794L166.153 56.6026L166.193 56.8292L166.228 57.0595L166.261 57.2932L166.29 57.5305L166.314 57.7713L166.336 58.0148L166.353 58.2619L166.367 58.5125L166.376 58.7666L166.383 59.0234L166.384 59.2837V59.3802V59.482V59.59V59.7025V59.8203V59.9433V60.0708V60.2037V60.3409V60.4826V60.6287V60.7792V60.9333V61.0918V61.2538V61.4194V61.5885V61.762V61.9382V62.1171V62.2995V62.4854V62.6732V62.8635V63.0574V63.2531V63.4506V63.6507V63.8535V64.0571V64.2634V64.4706V64.6796V64.8894V65.101V65.3135V65.5269V65.7412V65.9564V66.1715V66.3876V66.6045V66.8206V67.0375V67.2536V67.4705V67.6865V67.9017V68.1169V68.3303V68.5436V68.7562V68.9678V69.1776V69.3857V69.5929V69.7983V70.002V70.2039V70.4031V70.6005V70.7962V70.9884V71.1787V71.3664V71.5506V71.733V71.911V72.0863V72.259V72.4272V72.5928V72.7539V72.9115V73.0647V73.2135V73.3587V73.4995V73.6358V73.7669V73.8935V74.0157V74.1326V74.2441V74.3504V74.4513V74.5461V74.6364V74.7196V74.7975V74.8693V74.9348V74.9941V75.0472V75.0933V75.1322V75.165V75.1907V75.2084V75.2199L166.383 75.2252L166.368 75.2332L166.348 75.2447L166.321 75.2606L166.285 75.281L166.243 75.3058L166.192 75.3341L166.135 75.3669L166.072 75.4041L166.001 75.4448L165.924 75.4899L165.84 75.5378L165.749 75.59L165.653 75.6458L165.551 75.7042L165.443 75.7671L165.329 75.8326L165.21 75.9017L165.085 75.9734L164.955 76.0487L164.82 76.1266L164.68 76.2072L164.535 76.2913L164.387 76.3772L164.233 76.4657L164.075 76.5569L163.913 76.6508L163.747 76.7464L163.577 76.8447L163.403 76.9447L163.226 77.0466L163.046 77.151L162.862 77.2573L162.675 77.3644L162.486 77.4742L162.294 77.5849L162.099 77.6973L161.902 77.8116L161.703 77.9267L161.501 78.0427L161.297 78.1604L161.092 78.2791L160.886 78.3986L160.678 78.5182L160.468 78.6395L160.257 78.7617L160.045 78.8838L159.832 79.006L159.619 79.1291L159.405 79.2531L159.191 79.377L158.977 79.5001L158.762 79.6241L158.547 79.748L158.333 79.872L158.12 79.9951L157.906 80.1182L157.694 80.2412L157.482 80.3634L157.271 80.4847L157.062 80.606L156.854 80.7256L156.647 80.8451L156.443 80.9637L156.239 81.0806L156.038 81.1966L155.839 81.3117L155.642 81.4251L155.448 81.5375L155.256 81.6482L155.067 81.7571L154.881 81.8651L154.698 81.9705L154.518 82.0741L154.341 82.1759L154.169 82.276L154 82.3743L153.834 82.469L153.673 82.5629L153.515 82.6532L153.363 82.7417L153.214 82.8276L153.07 82.91L152.931 82.9905L152.797 83.0684L152.668 83.1428L152.544 83.2145L152.426 83.2827L152.313 83.3474L152.206 83.4093L152.105 83.4678L152.009 83.5227L151.921 83.574L151.837 83.6218L151.761 83.6661L151.691 83.706L151.629 83.7423L151.573 83.775L151.525 83.8034L151.483 83.8273L151.449 83.8467L151.434 83.8556L151.388 83.8813L151.312 83.9256L151.208 83.9858L151.075 84.0619L150.915 84.1549L150.726 84.2638L150.512 84.3878L150.271 84.5268L150.005 84.68L149.714 84.8482L149.399 85.0297L149.061 85.2254L148.698 85.4343L148.315 85.6557L147.909 85.8904L147.482 86.1365L147.035 86.3951L146.567 86.6651L146.081 86.9458L145.575 87.2371L145.052 87.539L144.512 87.8516L143.954 88.1739L143.38 88.5051L142.791 88.8451L142.187 89.1939L141.568 89.5517L140.936 89.9165L140.289 90.2892L139.632 90.6691L138.961 91.056L138.279 91.45L137.587 91.8494L136.885 92.2549L136.173 92.6658L135.452 93.0819L134.724 93.5034L133.987 93.9284L133.243 94.3578L132.493 94.7908L131.737 95.2273L130.975 95.6665L130.21 96.1084L129.44 96.5529L128.667 96.9991L127.891 97.4472L127.113 97.897L126.334 98.3468L125.553 98.7975L124.773 99.2481L123.992 99.6988L123.213 100.149L122.434 100.598L121.659 101.046L121.306 101.25L120.886 101.492L120.116 101.937L119.35 102.379L118.589 102.818L117.833 103.255L117.083 103.688L116.339 104.117L115.602 104.542L114.874 104.963L114.153 105.379L113.441 105.79L112.739 106.196L112.046 106.595L111.365 106.989L110.694 107.376L110.036 107.756L109.391 108.129L108.758 108.494L108.139 108.851L107.535 109.2L106.945 109.541L106.372 109.872L105.814 110.194L105.274 110.506L104.75 110.808L104.245 111.1L103.759 111.381L103.291 111.65L102.844 111.909L102.417 112.155L102.012 112.389L101.627 112.611L101.266 112.82L100.927 113.015L100.612 113.197L100.321 113.365L100.055 113.519L99.814 113.658L99.5998 113.782L99.4116 113.89L99.2509 113.983L99.1179 114.06L99.0135 114.12L98.9382 114.164L98.8925 114.19L98.8771 114.199L98.6321 114.338L98.388 114.473L98.1451 114.603L97.903 114.728L97.6621 114.849L97.4222 114.965L97.1835 115.076L96.9458 115.182L96.7094 115.285L96.4741 115.382L96.2402 115.475L96.0074 115.563L95.776 115.647L95.5458 115.726L95.3171 115.801L95.0897 115.871L94.8637 115.937L94.6392 115.998L94.4161 116.055L94.1946 116.107L93.9745 116.155L93.756 116.198L93.5391 116.237L93.3238 116.272L93.1102 116.302L92.8982 116.328L92.688 116.349L92.4795 116.366L92.2727 116.379L92.0677 116.388L91.8646 116.392L91.6634 116.392L91.464 116.388L91.2664 116.379L91.0709 116.366L90.8774 116.349L90.6857 116.328L90.4963 116.303L90.3087 116.273L90.1234 116.239L89.9401 116.201L89.7589 116.159L89.5801 116.113L89.4034 116.063L89.2288 116.009L89.0566 115.95L88.8867 115.888L88.7191 115.821L88.5539 115.75L88.3909 115.676L88.2305 115.597L88.0725 115.515L87.917 115.428L87.8073 115.365L87.7439 115.328L87.5669 115.226L87.2554 115.046L86.4397 114.575L86.2856 114.486L86.1321 114.396L84.8092 113.632L84.6551 113.543L84.5011 113.454L83.1778 112.69L83.0237 112.601L82.8697 112.512L81.5464 111.748L81.3922 111.659L81.2908 111.6L81.2382 111.57L79.915 110.806L79.7608 110.717L79.6064 110.629L78.2825 109.866L78.1284 109.777L77.9744 109.688L76.6511 108.924L76.497 108.835L76.3435 108.745L75.0206 107.98L74.8665 107.891L74.7125 107.802L73.3892 107.038L73.2351 106.949L73.0811 106.86L71.7577 106.096L71.6037 106.007L71.4497 105.918L70.1263 105.154L69.9721 105.065L69.8182 104.977L69.6677 104.882L69.5199 104.784L69.3745 104.681L69.2318 104.575L69.0917 104.465L68.9543 104.351L68.8197 104.233L68.6878 104.111L68.5586 103.986L68.4323 103.857L68.3087 103.723L68.1881 103.586L68.0704 103.446L67.9555 103.301L67.8436 103.153L67.7346 103.001L67.6287 102.846L67.5258 102.686L67.426 102.523L67.3294 102.356L67.2358 102.186L67.1453 102.012L67.0581 101.834L66.974 101.653L66.8932 101.468L66.8157 101.28L66.7414 101.088L66.6706 100.892L66.603 100.693L66.5389 100.491L66.4782 100.284L66.4209 100.075L66.3671 99.8618L66.3169 99.6448L66.2701 99.4252L66.227 99.2021L66.1874 98.9745L66.1515 98.7443L66.1191 98.5106L66.0905 98.2733L66.0657 98.0333L66.0446 97.7898L66.0272 97.5419L66.0137 97.2922L66.0039 97.0381L65.9981 96.7813L65.9961 96.521L65.9981 96.258L66.0039 95.9941L66.0137 95.7294L66.0272 95.4629L66.0446 95.1964L66.0657 94.9281L66.0905 94.6589L66.1191 94.3888L66.1515 94.1179L66.1874 93.8461L66.227 93.5733L66.2514 93.2475L66.2938 93.1607L66.3878 93.1067L66.5413 93.0182L66.6932 92.9305L66.8433 92.8437L66.9916 92.7578L67.1379 92.6737L67.2821 92.5905L67.4241 92.5082L67.5637 92.4276L67.701 92.3488L67.8356 92.2709L67.9675 92.1947L68.0967 92.1203L68.2229 92.0468L68.346 91.976L68.466 91.9069L68.5827 91.8396L68.696 91.7741L68.8057 91.7104L68.9119 91.6493L69.0143 91.5899L69.1127 91.5333L69.2072 91.4784L69.2975 91.4261L69.3837 91.3766L69.4654 91.3296L69.5427 91.2854L69.6154 91.2429L69.6833 91.2039L69.7464 91.1676L69.8046 91.1339L69.8577 91.103L69.9056 91.0755L69.9482 91.0507L69.9853 91.0295L70.0169 91.0109L70.0429 90.9958L70.0546 90.9896L70.0895 90.9693L70.1469 90.9365L70.2266 90.8904L70.3281 90.832L70.4507 90.7612L70.5943 90.6779L70.7581 90.5832L70.9417 90.4769L71.1447 90.3601L71.3667 90.2317L71.6071 90.0935L71.8655 89.9439L72.1414 89.7845L72.4344 89.6154L72.7439 89.4366L73.0697 89.2488L73.411 89.0514L73.7675 88.846L74.1388 88.6317L74.5242 88.4086L74.9234 88.1783L75.3361 87.9402L75.7615 87.6949L76.1993 87.4417L76.649 87.1822L77.1102 86.9157L77.5823 86.643L78.065 86.3649L78.5577 86.0798L79.0601 85.7903L79.5714 85.4946L80.0914 85.1944L80.6197 84.8898L81.1556 84.5799L81.6988 84.2664L82.2487 83.9495L82.8049 83.628L83.367 83.304L83.9345 82.9764L84.5069 82.6452L85.0837 82.3123L85.6645 81.9767L86.2487 81.6402L86.8361 81.3011L87.426 80.9602L88.0179 80.6184L88.6116 80.2758L89.2063 79.9322L89.8019 79.5887L90.3976 79.2442L90.9931 78.9007L91.5878 78.5571L92.1815 78.2145L92.7735 77.8727L93.3634 77.5318L93.9507 77.1927L94.5349 76.8562L95.1158 76.5206L95.6926 76.1877L96.2649 75.8565L96.8324 75.5289L97.3945 75.2048L97.9507 74.8834L98.5007 74.5664L99.0438 74.253L99.5794 73.9431L100.108 73.6385L100.628 73.3383L101.14 73.0426L101.642 72.753L102.135 72.4679L102.617 72.1899L103.089 71.9172L103.551 71.6507L104 71.3912L104.438 71.138L104.864 70.8927L105.276 70.6545L105.675 70.4243L106.061 70.2012L106.432 69.9869L106.789 69.7815L107.13 69.584L107.455 69.3963L107.765 69.2175L108.058 69.0483L108.334 68.889L108.592 68.7393L108.833 68.6012L109.055 68.4728L109.258 68.3559L109.441 68.2497L109.605 68.1549L109.749 68.0717L109.872 68.0009L109.973 67.9424L110.052 67.8964L110.11 67.8636L110.144 67.8433L110.157 67.8371L110.344 67.7264L110.53 67.613L110.715 67.4953L110.9 67.374L111.084 67.25L111.266 67.1216L111.449 66.9897L111.63 66.8542L111.811 66.7161L111.99 66.5735L112.169 66.4283L112.347 66.2805L112.523 66.1282L112.698 65.9732L112.873 65.8147L113.046 65.6536L113.219 65.4898L113.391 65.3215L113.561 65.1515L113.73 64.978L113.897 64.8018L114.064 64.6229L114.23 64.4414L114.394 64.2572L114.557 64.0695L114.719 63.88L114.879 63.687L115.038 63.4922L115.196 63.2947L115.353 63.0946L115.508 62.8919L115.661 62.6873L115.813 62.4792L115.964 62.2703L116.113 62.0587L116.26 61.8444L116.406 61.6283L116.552 61.4096L116.694 61.1892L116.836 60.9669L116.976 60.742L117.114 60.5162L117.25 60.2878L117.386 60.0576L117.518 59.8256L117.65 59.5918L117.78 59.3563L117.907 59.119L118.034 58.8799L118.158 58.64L118.28 58.3982L118.4 58.1547L118.519 57.9095L118.636 57.6633L118.751 57.4154L118.863 57.1666L118.975 56.9169L119.084 56.6654L119.19 56.4122L119.296 56.159L119.398 55.904L119.498 55.6481L119.597 55.3904L119.694 55.1327L119.788 54.8742L119.88 54.6139L119.969 54.3535L120.057 54.0923L120.143 53.8302L120.226 53.5673L120.307 53.3043L120.386 53.0395L120.462 52.7748L120.535 52.51L120.607 52.2444L120.676 51.9779L120.742 51.7123L120.806 51.4449L120.868 51.1783L120.927 50.9109L120.984 50.6435L121.038 50.3752L121.089 50.1078L121.138 49.8396L121.185 49.5722L121.228 49.3039L121.269 49.0356L121.308 48.7682L121.325 48.6362L121.344 48.5008L121.376 48.2334L121.406 47.966L121.434 47.6994L121.459 47.4329L121.481 47.1664L121.499 46.9008L121.515 46.6351L121.529 46.3704L121.539 46.1065L121.546 45.8427L121.551 45.5797L121.553 45.3176L121.551 45.0564L121.546 44.7987L121.539 44.5437L121.529 44.2914L121.515 44.0417L121.499 43.7946L121.481 43.5511L121.459 43.3103L121.434 43.0721L121.406 42.8366L121.376 42.6046L121.344 42.3753L121.308 42.1486L121.269 41.9255L121.228 41.705L121.185 41.4872L121.138 41.2729L121.089 41.0613L121.038 40.8532L120.984 40.6478L120.927 40.4459L120.868 40.2467L120.806 40.051L120.742 39.858L120.676 39.6685L120.607 39.4825L120.535 39.2992L120.462 39.1186L120.386 38.9424L120.307 38.7689L120.226 38.5989L120.143 38.4315L120.057 38.2686L119.969 38.1083L119.88 37.9516L119.788 37.7984L119.694 37.6479L119.597 37.5009L119.498 37.3584L119.398 37.2185L119.296 37.0821L119.19 36.9493L119.084 36.82L118.975 36.6943L118.863 36.5721L118.751 36.4534L118.636 36.3383L118.519 36.2268L118.4 36.1187L118.28 36.0151L118.158 35.9142L118.034 35.8177L117.907 35.7238L117.78 35.6344L117.65 35.5494L117.518 35.467L117.386 35.3891L117.307 35.344L117.251 35.313L117.141 35.2537L117.033 35.1855L116.695 34.9907L115.887 34.5241L115.754 34.447L115.62 34.37L114.256 33.5819L114.123 33.5049L113.989 33.4279L112.625 32.6398L112.491 32.5628L112.357 32.4858L110.994 31.6986L110.86 31.6207L110.726 31.5445L109.362 30.7565L109.228 30.6795L109.094 30.6024L107.731 29.8144L107.597 29.7373L107.463 29.6603L106.099 28.8723L105.965 28.7952L105.832 28.7182L104.468 27.931L104.334 27.8531L104.201 27.7761L102.836 26.9889L102.702 26.9119L102.569 26.8349L101.205 26.0468L101.071 25.9698L100.938 25.8928L99.5732 25.1047L99.4395 25.0277L99.3046 24.9533L99.1681 24.8825L99.0299 24.8161L98.8901 24.7532L98.7486 24.6939L98.6056 24.6381L98.461 24.5867L98.3148 24.5398L98.1671 24.4964L98.0179 24.4566L97.8672 24.4212L97.715 24.3893L97.5615 24.3618L97.4064 24.3379L97.2501 24.3184L97.0924 24.3034L96.9332 24.2919L96.7728 24.2848L96.611 24.2812L96.448 24.2821L96.2838 24.2874L96.1183 24.2972L95.9516 24.3105L95.7837 24.3282L95.6146 24.3503L95.4444 24.376L95.273 24.407L95.1006 24.4415L94.9271 24.4805L94.7526 24.5239L94.577 24.5717L94.4003 24.6239L94.2228 24.6806L94.0442 24.7408L93.8647 24.8063L93.6844 24.8763L93.503 24.9506L93.3209 25.0286L93.1379 25.1118L92.954 25.1995L92.7694 25.2915L92.5839 25.3889L92.3977 25.4899L92.2107 25.5952L92.1991 25.6023L92.1642 25.6227L92.1067 25.6555L92.027 25.7015L91.9255 25.7599L91.8029 25.8308L91.6594 25.914L91.4957 26.0087L91.312 26.1141L91.1089 26.2319L90.887 26.3603L90.6465 26.4984L90.3881 26.648L90.1122 26.8074L89.8192 26.9765L89.5097 27.1554L89.184 27.3431L88.8427 27.5406L88.4861 27.746L88.1149 27.9603L87.7294 28.1825L87.3302 28.4136L86.9176 28.6518L86.4921 28.8971L86.0543 29.1503L85.6046 29.4097L85.1434 29.6763L84.6713 29.9481L84.1886 30.227L83.6959 30.5112L83.1937 30.8017L82.6822 31.0965L82.1622 31.3976L81.634 31.7021L81.0981 32.0112L80.5549 32.3255L80.0049 32.6425L79.4487 32.9639L78.8866 33.288L78.3191 33.6156L77.7468 33.9467L77.17 34.2797L76.5892 34.6144L76.0049 34.9517L75.4176 35.2908L74.8277 35.6317L74.2357 35.9735L73.6421 36.3162L73.0473 36.6597L72.4518 37.0033L71.8561 37.3477L71.2605 37.6913L70.6658 38.0348L70.0722 38.3775L69.4802 38.7193L68.8903 39.0593L68.303 39.3984L67.7187 39.7358L67.1379 40.0714L66.5611 40.4043L65.9887 40.7345L65.4212 41.0622L64.8592 41.3871L64.3029 41.7085L63.753 42.0255L63.2098 42.339L62.6739 42.6489L62.1457 42.9535L61.6256 43.2536L61.1143 43.5494L60.6119 43.8389L60.1192 44.124L59.6365 44.4021L59.1644 44.6748L58.7033 44.9413L58.2536 45.2007L57.8157 45.454L57.3903 45.6992L56.9777 45.9374L56.5784 46.1676L56.193 46.3908L55.8217 46.605L55.4652 46.8105L55.1239 47.0079L54.7982 47.1956L54.4886 47.3745L54.1957 47.5436L53.9197 47.703L53.6613 47.8517L53.4209 47.9908L53.1989 48.1191L52.9959 48.236L52.8123 48.3423L52.6484 48.437L52.505 48.5194L52.3823 48.5902L52.2809 48.6495L52.2011 48.6956L52.1437 48.7283L52.1088 48.7487L52.0971 48.7549L51.9102 48.8656L51.724 48.9789L51.5385 49.0967L51.3538 49.2171L51.17 49.3419L50.987 49.4703L50.8048 49.6023L50.6235 49.7377L50.4431 49.8759L50.2636 50.0175L50.0851 50.1636L49.9075 50.3115L49.7309 50.4638L49.5553 50.6187L49.3807 50.7772L49.2073 50.9384L49.0348 51.1022L48.8634 51.2695L48.6933 51.4404L48.5241 51.6131L48.3563 51.7893L48.1895 51.969L48.024 52.1506L47.8598 52.3347L47.6968 52.5224L47.5351 52.7119L47.3747 52.905L47.2156 53.0998L47.0578 53.2972L46.9014 53.4973L46.7464 53.7001L46.5928 53.9046L46.4407 54.1118L46.29 54.3217L46.1408 54.5333L45.9931 54.7476L45.8469 54.9636L45.7022 55.1823L45.5592 55.4028L45.4177 55.625L45.2779 55.8499L45.1397 56.0757L45.0032 56.3042L44.8683 56.5344L44.7352 56.7664L44.6038 57.0001L44.4741 57.2357L44.3463 57.473L44.2202 57.7111L44.096 57.952L43.9735 58.1937L43.8529 58.4372L43.7343 58.6825L43.6176 58.9286L43.5027 59.1757L43.3898 59.4254L43.279 59.6751L43.1701 59.9265L43.0632 60.1798L42.9583 60.433L42.8556 60.688L42.755 60.9439L42.6564 61.2007L42.5601 61.4592L42.4658 61.7178L42.3737 61.9781L42.2838 62.2384L42.1962 62.4996L42.1108 62.7617L42.0277 63.0247L41.9469 63.2877L41.8684 63.5524L41.7922 63.8163L41.7185 64.0819L41.647 64.3475L41.578 64.6132L41.5114 64.8797L41.4473 65.1471L41.3856 65.4136L41.3265 65.681L41.2699 65.9484L41.2158 66.2167L41.1643 66.4841L41.1153 66.7524L41.069 67.0198L41.0253 67.2881L40.9842 67.5555L40.9459 67.8238L40.9102 68.0912L40.8773 68.3586L40.8471 68.626L40.8196 68.8925L40.795 69.159L40.7732 69.4255L40.7542 69.6912L40.7381 69.9568L40.7249 70.2216L40.7145 70.4854L40.7071 70.7493L40.7027 71.0123L40.7012 71.2743V71.3709V71.4736V71.5807V71.694V71.8118V71.9349V72.0624V72.1952V72.3325V72.4732V72.6193V72.7699V72.9239V73.0824V73.2445V73.4109V73.58V73.7527V73.9289V74.1087V74.2911V74.4761V74.6638V74.8551V75.0481V75.2438V75.4421V75.6422V75.8441V76.0487V76.2541V76.4613V76.6702V76.8801V77.0917V77.3042V77.5176V77.7319V77.947V78.1631V78.3791V78.5952V78.8121V79.0282V79.2451V79.4612V79.6772V79.8924V80.1075V80.3218V80.5352V80.7477V80.9584V81.1683V81.3773V81.5836V81.789V81.9926V82.1945V82.3946V82.5921V82.7869V82.9799V83.1694V83.3571V83.5422V83.7237V83.9025V84.0779V84.2496V84.4187V84.5834V84.7446V84.9022V85.0554V85.205V85.3502V85.491V85.6265V85.7584V85.885V86.0063V86.1232V86.2348V86.341V86.442V86.5376V86.627V86.7112V86.7891V86.8608V86.9263V86.9856V87.0379V87.0839V87.1238V87.1556V87.1813V87.1999L40.7028 87.2123L40.7012 87.215" stroke="white" stroke-width="0.75" stroke-linejoin="round"/>
    <path d="M132.169 107.526L132.006 107.434L131.58 107.217L131.38 107.165L131.216 107.105L131.049 107.048L130.881 106.996L130.711 106.948L130.538 106.904L130.364 106.864L130.187 106.828L130.009 106.796L129.828 106.768L129.646 106.745L129.463 106.725L129.277 106.71L129.089 106.699L128.899 106.692L128.708 106.689L128.515 106.691L128.32 106.697L128.124 106.707L127.926 106.721L127.726 106.74L127.525 106.763L127.322 106.79L127.119 106.822L126.913 106.858L126.706 106.898L126.497 106.943L126.287 106.992L126.076 107.046L125.863 107.104L125.649 107.166L125.434 107.233L125.217 107.305L124.999 107.381L124.78 107.461L124.56 107.546L124.338 107.635L124.116 107.729L123.892 107.828L123.667 107.931L123.442 108.039L123.215 108.152L122.987 108.269L122.758 108.39L122.529 108.517L122.298 108.648L122.283 108.656L122.241 108.681L122.17 108.722L122.072 108.779L121.946 108.851L121.795 108.938L121.618 109.04L121.416 109.157L121.189 109.288L120.938 109.432L120.665 109.591L120.368 109.762L120.049 109.946L119.709 110.142L119.348 110.351L118.966 110.572L118.564 110.804L118.143 111.047L117.703 111.301L117.245 111.565L116.77 111.84L116.277 112.124L115.768 112.418L115.243 112.721L114.703 113.033L114.148 113.353L113.579 113.681L112.997 114.018L112.401 114.362L111.794 114.712L111.174 115.07L110.543 115.435L109.901 115.805L109.25 116.181L108.588 116.563L107.919 116.95L107.24 117.341L106.553 117.738L105.86 118.138L105.161 118.542L104.454 118.95L103.742 119.361L103.026 119.774L102.305 120.191L101.581 120.609L100.853 121.029L100.122 121.451L99.3903 121.873L98.6566 122.297L97.9219 122.721L97.187 123.146L96.4523 123.57L95.7186 123.993L94.9862 124.416L94.2559 124.838L93.5282 125.258L92.8036 125.676L92.0828 126.093L91.3663 126.506L90.6547 126.917L89.9486 127.325L89.2485 127.729L88.5551 128.129L87.8689 128.525L87.1904 128.917L86.5203 129.304L85.8592 129.686L85.2075 130.062L84.566 130.432L83.935 130.797L83.3154 131.154L82.7075 131.505L82.1121 131.849L81.5296 132.185L80.9607 132.514L80.4059 132.834L79.8658 133.146L79.3409 133.449L78.8319 133.743L78.3394 134.027L77.8638 134.302L77.4058 134.566L76.966 134.82L76.5448 135.063L76.1431 135.295L75.7612 135.516L75.3998 135.724L75.0593 135.921L74.7406 136.105L74.444 136.276L74.1702 136.434L73.9197 136.579L73.6931 136.71L73.491 136.826L73.314 136.929L73.1626 137.016L73.0375 137.088L72.9392 137.145L72.8683 137.186L72.8253 137.211L72.8108 137.219L72.5802 137.354L72.3505 137.493L72.1217 137.636L71.894 137.782L71.6671 137.931L71.4413 138.084L71.2166 138.24L70.9929 138.4L70.7703 138.563L70.5489 138.729L70.3287 138.899L70.1095 139.071L69.8917 139.247L69.675 139.426L69.4597 139.607L69.2457 139.792L69.0329 139.98L68.8216 140.17L68.6116 140.363L68.403 140.559L68.1959 140.758L67.9902 140.96L67.786 141.164L67.5834 141.371L67.3823 141.58L67.1828 141.792L66.9849 142.006L66.7886 142.222L66.594 142.441L66.401 142.662L66.2098 142.886L66.0203 143.111L65.8327 143.339L65.6467 143.569L65.4626 143.801L65.2804 144.035L65.1001 144.271L64.9217 144.509L64.7453 144.749L64.5707 144.99L64.3982 145.233L64.2277 145.478L64.0593 145.725L63.8929 145.974L63.7287 146.223L63.5665 146.475L63.4066 146.728L63.2489 146.982L63.0933 147.238L62.94 147.495L62.789 147.754L62.6402 148.013L62.4938 148.274L62.3498 148.536L62.2081 148.799L62.0689 149.064L61.9321 149.329L61.7978 149.595L61.6659 149.862L61.5366 150.13L61.4099 150.399L61.2857 150.668L61.1641 150.939L61.0452 151.21L60.9289 151.481L60.8153 151.753L60.7044 152.026L60.5963 152.299L60.4911 152.573L60.3885 152.847L60.2888 153.121L60.1919 153.396L60.098 153.671L60.007 153.946L59.9189 154.221L59.8337 154.497L59.7515 154.772L59.6725 155.047L59.5964 155.323L59.5234 155.598L59.4536 155.873L59.3868 156.148L59.3232 156.423L59.2629 156.698L59.2057 156.972L59.1518 157.246L59.1012 157.519L59.0539 157.792L59.0099 158.064L58.9692 158.336L58.932 158.607L58.8981 158.878L58.8678 159.148L58.8409 159.417L58.8175 159.686L58.7976 159.953L58.7812 160.22L58.7684 160.485L58.7593 160.75L58.7538 161.013L58.752 161.276V161.373V161.475V161.582V161.695V161.813V161.936V162.064V162.196V162.333V162.475V162.621V162.771V162.926V163.084V163.246V163.412V163.581V163.754V163.93V164.11V164.292V164.478V164.666V164.856V165.05V165.245V165.443V165.643V165.846V166.05V166.255V166.463V166.672V166.882V167.093V167.306V167.519V167.734V167.949V168.164V168.38V168.597V168.813V169.03V169.246V169.463V169.679V169.894V170.109V170.323V170.536V170.749V170.96V171.17V171.378V171.585V171.791V171.994V172.196V172.396V172.593V172.788V172.981V173.171V173.359V173.543V173.725V173.904V174.079V174.251V174.42V174.585V174.746V174.904V175.057V175.206V175.351V175.492V175.628V175.76V175.886V176.008V176.125V176.236V176.343V176.444V176.539V176.629V176.712V176.79V176.862V176.927V176.987V177.039V177.085V177.125V177.157V177.183V177.201V177.212" stroke="white" stroke-width="0.75" stroke-linejoin="round"/>
    <path d="M66.2695 93.2992L66.2933 93.1602" stroke="white" stroke-width="0.75" stroke-linejoin="round"/>
    <path d="M40.8066 166.851V166.84V166.821V166.796V166.763V166.724V166.678V166.625V166.566V166.5V166.429V166.351V166.267V166.177V166.082V165.981V165.875V165.763V165.647V165.525V165.398V165.267V165.13V164.99V164.845V164.695V164.542V164.385V164.223V164.058V163.89V163.718V163.542V163.364V163.182V162.997V162.81V162.619V162.427V162.232V162.034V161.834V161.633V161.429V161.224V161.017V160.808V160.598V160.387V160.175V159.962V159.747V159.533V159.317V159.101V158.885V158.668V158.452V158.235V158.019V157.803V157.587V157.372V157.158V156.944V156.732V156.52V156.31V156.101V155.894V155.688V155.484V155.282V155.082V154.884V154.688V154.495V154.304V154.116V153.931V153.748V153.569V153.393V153.22V153.05V152.885V152.722V152.564V152.41V152.26V152.113V151.972V151.835V151.702V151.574V151.451V151.334V151.221V151.113V151.011V150.915L40.8085 150.652L40.814 150.388L40.8232 150.124L40.8359 149.858L40.8522 149.591L40.8722 149.324L40.8955 149.056L40.9225 148.787L40.9528 148.517L40.9867 148.246L41.0239 147.975L41.0646 147.703L41.1086 147.43L41.1559 147.158L41.2065 146.884L41.2604 146.61L41.3175 146.336L41.3779 146.062L41.4415 145.787L41.5083 145.512L41.5781 145.237L41.6511 144.961L41.7271 144.686L41.8063 144.41L41.8884 144.135L41.9736 143.86L42.0617 143.584L42.1527 143.309L42.2466 143.034L42.3435 142.76L42.4432 142.485L42.5457 142.211L42.6511 141.938L42.7592 141.665L42.8701 141.392L42.9836 141.12L43.0998 140.848L43.2189 140.577L43.3404 140.307L43.4646 140.037L43.5914 139.769L43.7206 139.501L43.8525 139.233L43.9868 138.967L44.1236 138.702L44.2629 138.438L44.4045 138.175L44.5485 137.913L44.6949 137.652L44.8436 137.392L44.9947 137.134L45.148 136.877L45.3035 136.621L45.4613 136.366L45.6212 136.113L45.7834 135.862L45.9476 135.612L46.114 135.364L46.2824 135.117L46.4529 134.872L46.6254 134.629L46.7999 134.387L46.9764 134.147L47.1548 133.909L47.3352 133.674L47.5173 133.44L47.7014 133.208L47.8873 132.978L48.0751 132.75L48.2645 132.524L48.4557 132.301L48.6487 132.08L48.8433 131.861L49.0396 131.644L49.2375 131.43L49.437 131.218L49.6381 131.009L49.8407 130.802L50.0449 130.598L50.2506 130.397L50.4577 130.198L50.6663 130.002L50.8762 129.809L51.0876 129.618L51.3004 129.43L51.5144 129.246L51.7297 129.064L51.9464 128.885L52.1642 128.71L52.3834 128.537L52.6036 128.368L52.825 128.201L53.0476 128.039L53.2713 127.879L53.496 127.723L53.7218 127.57L53.9486 127.42L54.1764 127.274L54.4052 127.132L54.635 126.993L54.8655 126.858L54.88 126.849L54.923 126.824L54.9939 126.784L55.0923 126.727L55.2174 126.655L55.3687 126.567L55.5457 126.465L55.7478 126.348L55.9744 126.217L56.2249 126.073L56.4986 125.915L56.7953 125.743L57.114 125.559L57.4545 125.363L57.8159 125.154L58.1978 124.934L58.5996 124.702L59.0206 124.459L59.4605 124.205L59.9185 123.94L60.3941 123.666L60.8866 123.381L61.3956 123.088L61.9205 122.784L62.4606 122.473L63.0154 122.152L63.5843 121.824L64.1668 121.488L64.7622 121.144L65.3701 120.793L65.9898 120.435L66.6207 120.071L67.2622 119.7L67.9139 119.324L68.575 118.943L69.2451 118.556L69.9235 118.164L70.6098 117.768L71.3032 117.367L72.0033 116.963L72.7094 116.555L73.4209 116.145L74.1374 115.731L74.8583 115.315L75.5828 114.896L76.3106 114.476L77.0409 114.055L77.7733 113.632L78.507 113.208L79.2417 112.784L79.9766 112.36L80.7112 111.936L81.2898 111.602" stroke="white" stroke-width="0.75" stroke-linejoin="round"/>
    <path d="M58.6504 97.5729L58.6596 97.5676L58.6748 97.5588L58.696 97.5464L58.7229 97.5313L58.7554 97.5127L58.7935 97.4906L58.837 97.4649L58.8857 97.4375L58.9398 97.4056L58.9987 97.3719L59.0627 97.3348L59.1315 97.2949L59.2049 97.2533L59.2829 97.2081L59.3655 97.1603L59.4522 97.1099L59.5434 97.0576L59.6385 97.0027L59.7376 96.9452L59.8406 96.8858L59.9474 96.8239L60.0578 96.7601L60.1717 96.6946L60.2889 96.6273L60.4094 96.5573L60.5331 96.4865L60.6598 96.413L60.7894 96.3377L60.9218 96.2616L61.0569 96.1837L61.1945 96.104L61.3346 96.0234L61.477 95.9411L61.6216 95.8578L61.7682 95.7728L61.9168 95.6869L62.0672 95.6002L62.2194 95.5125L62.3731 95.424L62.5284 95.3337L62.685 95.2433L62.8429 95.1521L63.0018 95.0609L63.1617 94.9689L63.3226 94.8759L63.4842 94.782L63.6465 94.6882L63.8092 94.5943L63.9724 94.5005L64.1359 94.4057L64.2996 94.3119L64.4632 94.2171L64.6269 94.1224L64.7903 94.0285L64.9535 93.9338L65.1162 93.8399L65.2783 93.7461L65.4398 93.6531L65.6005 93.5601L65.7603 93.468L65.9191 93.3768L66.0768 93.2856L66.2331 93.1953" stroke="white" stroke-width="0.75" stroke-linejoin="round"/>
    <path d="M58.6465 97.5754L58.648 97.5728L58.6465 97.5604V97.5427V97.517V97.4842V97.4453V97.3992V97.3461V97.2868V97.2212V97.1495V97.0716V96.9884V96.8981V96.8033V96.7024V96.5961V96.4846V96.3677V96.2455V96.1189V95.9878V95.8515V95.7107V95.5655V95.4167V95.2626V95.1059V94.9448V94.7792V94.611V94.4383V94.263V94.085V93.9026V93.7184V93.5307V93.3404V93.1473V92.9525V92.7551V92.5558V92.354V92.1503V91.9449V91.7377V91.5296V91.3198V91.1081V90.8956V90.6822V90.4689V90.2537V90.0376V89.8225V89.6055V89.3895V89.1726V88.9565V88.7396V88.5235V88.3084V88.0932V87.8789V87.6655V87.453V87.2414V87.0316V86.8226V86.6145V86.4091V86.2054V86.0027V85.8026V85.6051V85.4094V85.2155V85.0252V84.8374V84.6515V84.4691V84.2902V84.114V83.9405V83.7714V83.6058V83.4438V83.2853V83.1312V82.9807V82.8346V82.6929V82.5557V82.4228V82.2953V82.1723V82.0545V81.942V81.834V81.7322V81.6357L58.648 81.3736L58.6524 81.1106L58.6599 80.8467L58.6702 80.582L58.6834 80.3173L58.6995 80.0525L58.7186 79.786L58.7403 79.5204L58.765 79.2538L58.7924 78.9864L58.8226 78.7199L58.8555 78.4525L58.8912 78.1842L58.9296 77.9168L58.9706 77.6485L59.0143 77.3811L59.0606 77.1128L59.1096 76.8454L59.1611 76.5771L59.2152 76.3097L59.2718 76.0423L59.3309 75.7749L59.3926 75.5075L59.4568 75.241L59.5233 74.9745L59.5923 74.708L59.6638 74.4423L59.7375 74.1776L59.8137 73.9128L59.8922 73.649L59.9731 73.3851L60.0561 73.123L60.1416 72.8601L60.2291 72.5989L60.319 72.3385L60.4111 72.0791L60.5053 71.8197L60.6017 71.562L60.7003 71.3052L60.8009 71.0493L60.9037 70.7943L61.0085 70.5402L61.1154 70.2878L61.2243 70.0364L61.3351 69.7858L61.448 69.537L61.5628 69.2891L61.6796 69.0429L61.7982 68.7985L61.9188 68.555L62.0412 68.3124L62.1655 68.0725L62.2916 67.8334L62.4194 67.5961L62.5491 67.3606L62.6806 67.1277L62.8136 66.8957L62.9485 66.6655L63.085 66.4371L63.2233 66.2104L63.3631 65.9864L63.5046 65.7632L63.6476 65.5428L63.7922 65.3249L63.9383 65.1089L64.0861 64.8946L64.2353 64.683L64.3859 64.4731L64.5381 64.266L64.6917 64.0605L64.8467 63.8586L65.0031 63.6585L65.1609 63.4602L65.32 63.2654L65.4803 63.0733L65.6421 62.8829L65.8051 62.6961L65.9694 62.511L66.1349 62.3295L66.3016 62.1506L66.4695 61.9744L66.6386 61.8009L66.8088 61.6309L66.9801 61.4635L67.1525 61.2988L67.326 61.1377L67.5006 60.9792L67.6761 60.8242L67.8528 60.6728L68.0304 60.5241L68.2089 60.3789L68.3884 60.2372L68.5688 60.0982L68.7501 59.9627L68.9323 59.8317L69.1153 59.7033L69.2992 59.5784L69.4839 59.4571L69.6693 59.3402L69.8555 59.226L70.0424 59.1162L70.0541 59.1091L70.089 59.0897L70.1464 59.056L70.2261 59.01L70.3276 58.9515L70.4502 58.8807L70.5938 58.7975L70.7576 58.7036L70.9412 58.5973L71.1442 58.4796L71.3662 58.3521L71.6066 58.2131L71.865 58.0634L72.1409 57.9049L72.4339 57.7358L72.7434 57.557L73.0692 57.3684L73.4105 57.1718L73.767 56.9655L74.1383 56.7512L74.5237 56.529L74.923 56.2987L75.3356 56.0597L75.761 55.8144L76.1988 55.562L76.6485 55.3017L77.1097 55.0361L77.5819 54.7634L78.0645 54.4845L78.5573 54.2002L79.0596 53.9098L79.5709 53.615L80.0909 53.3148L80.6192 53.0093L81.1551 52.7003L81.6983 52.3868L82.2482 52.069L82.8045 51.7476L83.3665 51.4235L83.934 51.0959L84.5064 50.7656L85.0832 50.4327L85.664 50.0971L86.2482 49.7597L86.8356 49.4206L87.4255 49.0797L88.0174 48.7379L88.6111 48.3953L89.2059 48.0517L89.8014 47.7082L90.3971 47.3646L90.9926 47.0202L91.5874 46.6775L92.181 46.334L92.773 45.9922L93.3629 45.6522L93.9502 45.313L94.5345 44.9757L95.1153 44.6401L95.6921 44.3072L96.2644 43.9769L96.8319 43.6493L97.394 43.3243L97.9502 43.0038L98.5002 42.6859L99.0433 42.3725L99.5789 42.0626L100.108 41.758L100.627 41.4578L101.139 41.1621L101.641 40.8726L102.134 40.5883L102.617 40.3094L103.089 40.0367L103.55 39.7702L104 39.5107L104.437 39.2584L104.863 39.0122L105.276 38.7741L105.674 38.5438L106.06 38.3216L106.431 38.1073L106.788 37.901L107.129 37.7036L107.455 37.5158L107.765 37.337L108.058 37.1679L108.333 37.0085L108.592 36.8597L108.833 36.7207L109.054 36.5923L109.258 36.4754L109.441 36.3692L109.605 36.2744L109.748 36.1921L109.871 36.1213L109.972 36.0628L110.052 36.0168L110.109 35.9831L110.144 35.9637L110.156 35.9566L110.343 35.8503L110.529 35.7494L110.714 35.6529L110.899 35.5608L111.083 35.4731L111.266 35.3899L111.448 35.3111L111.63 35.2367L111.81 35.1676L111.989 35.1021L112.168 35.041L112.346 34.9844L112.522 34.933L112.698 34.8852L112.872 34.8418L113.046 34.8028L113.218 34.7674L113.39 34.7373L113.56 34.7108L113.729 34.6895L113.897 34.6718L114.064 34.6576L114.229 34.6488L114.393 34.6435L114.556 34.6426L114.718 34.6452L114.878 34.6532L115.038 34.6638L115.195 34.6798L115.352 34.6992L115.507 34.7232L115.66 34.7506L115.813 34.7816L115.963 34.8179L116.113 34.8569L116.26 34.9002L116.406 34.9481L116.551 34.9994L116.694 35.0543L116.835 35.1136L116.975 35.1765L117.141 35.2535L117.237 35.3031" stroke="white" stroke-width="0.75" stroke-linejoin="round"/>
    <path d="M121.306 101.25L122.382 101.871L122.531 101.958L122.681 102.044L124.014 102.813L124.163 102.9L124.313 102.986L125.644 103.755L125.794 103.842L125.944 103.928L127.276 104.697L127.426 104.784L127.576 104.87L128.907 105.639L129.057 105.725L129.207 105.812L130.539 106.581L130.689 106.667L130.839 106.754L131.58 107.216L131.703 107.297L131.86 107.369L132.006 107.433L132.159 107.516L132.227 107.555L132.32 107.609L132.469 107.697L132.615 107.789L132.759 107.885L132.901 107.984L133.04 108.088L133.177 108.195L133.312 108.306L133.443 108.421L133.572 108.54L133.699 108.662L133.823 108.788L133.945 108.918L134.063 109.052L134.18 109.189L134.293 109.33L134.404 109.475L134.512 109.623L134.618 109.775L134.72 109.931L134.82 110.09L134.917 110.253L135.011 110.419L135.102 110.589L135.19 110.763L135.275 110.94L135.357 111.12L135.437 111.304L135.513 111.492L135.585 111.683L135.655 111.878L135.722 112.076L135.785 112.277L135.846 112.482L135.903 112.69L135.957 112.901L136.008 113.116L136.055 113.335L136.099 113.556L136.14 113.781L136.177 114.009L136.21 114.241L136.241 114.476L136.268 114.714L136.291 114.955L136.311 115.2L136.327 115.447L136.341 115.698L136.35 115.952L136.355 116.21L136.357 116.47L136.355 116.733L136.35 116.996L136.341 117.261L136.327 117.527L136.311 117.793L136.291 118.061L136.268 118.329L136.241 118.598L136.21 118.868L136.177 119.139L136.14 119.41L136.099 119.682L136.055 119.954L136.008 120.227L135.957 120.5L135.903 120.774L135.846 121.048L135.785 121.323L135.722 121.598L135.655 121.873L135.585 122.148L135.513 122.423L135.437 122.699L135.357 122.974L135.275 123.25L135.19 123.525L135.102 123.8L135.011 124.075L134.917 124.35L134.82 124.625L134.72 124.899L134.618 125.173L134.512 125.447L134.404 125.72L134.293 125.993L134.18 126.265L134.063 126.536L133.945 126.808L133.823 127.078L133.699 127.347L133.572 127.616L133.443 127.884L133.312 128.151L133.177 128.417L133.04 128.683L132.901 128.947L132.759 129.21L132.615 129.472L132.469 129.733L132.32 129.992L132.169 130.251L132.015 130.508L131.86 130.764L131.703 131.018L131.542 131.271L131.38 131.523L131.216 131.773L131.049 132.021L130.881 132.268L130.711 132.513L130.538 132.756L130.364 132.998L130.187 133.237L130.009 133.475L129.828 133.711L129.646 133.945L129.463 134.177L129.277 134.407L129.089 134.635L128.899 134.86L128.708 135.084L128.515 135.305L128.32 135.524L128.124 135.74L127.926 135.955L127.726 136.166L127.525 136.376L127.322 136.582L127.119 136.786L126.913 136.988L126.706 137.187L126.497 137.383L126.287 137.576L126.076 137.767L125.863 137.954L125.649 138.139L125.434 138.321L125.217 138.499L124.999 138.675L124.78 138.847L124.56 139.017L124.338 139.183L124.116 139.346L123.892 139.506L123.667 139.662L123.442 139.815L123.215 139.964L122.987 140.11L122.758 140.253L122.529 140.392L122.298 140.527L122.283 140.535L122.241 140.56L122.17 140.601L122.072 140.658L121.946 140.73L121.795 140.818L121.618 140.92L121.416 141.036L121.189 141.167L120.938 141.312L120.665 141.47L120.368 141.641L120.049 141.825L119.709 142.022L119.348 142.23L118.966 142.451L118.564 142.683L118.143 142.926L117.703 143.18L117.245 143.444L116.77 143.719L116.277 144.003L115.768 144.297L115.243 144.6L114.703 144.912L114.148 145.232L113.579 145.561L112.997 145.897L112.401 146.241L111.794 146.592L111.174 146.95L110.543 147.314L109.901 147.684L109.25 148.06L108.588 148.442L107.919 148.829L107.24 149.221L106.553 149.617L105.86 150.017L105.161 150.421L104.454 150.829L103.742 151.24L103.026 151.654L102.305 152.07L101.581 152.488L100.853 152.908L100.122 153.33L99.3903 153.753L98.6566 154.176L97.9219 154.601L97.187 155.025L96.4523 155.449L95.7186 155.873L94.9862 156.295L94.2559 156.717L93.5282 157.137L92.8036 157.556L92.0828 157.972L91.3663 158.385L90.6547 158.796L89.9486 159.204L89.2485 159.608L88.5551 160.009L87.8689 160.405L87.1904 160.796L86.5203 161.183L85.8592 161.565L85.2075 161.941L84.566 162.312L83.935 162.676L83.3154 163.034L82.7075 163.385L82.1121 163.728L81.5296 164.065L80.9607 164.393L80.4059 164.713L79.8658 165.025L79.3409 165.328L78.8319 165.622L78.3394 165.907L77.8638 166.181L77.4058 166.445L76.966 166.699L76.5448 166.943L76.1431 167.175L75.7612 167.395L75.3998 167.604L75.0593 167.8L74.7406 167.984L74.444 168.156L74.1702 168.314L73.9197 168.458L73.6931 168.589L73.491 168.706L73.314 168.808L73.1626 168.895L73.0375 168.968L72.9392 169.024L72.8683 169.065L72.8253 169.09L72.8108 169.098L72.7789 169.117L72.7398 169.139L72.694 169.166L72.6415 169.196L72.5824 169.23L72.5169 169.268L72.4451 169.31L72.3672 169.355L72.2835 169.403L72.1938 169.455L72.0984 169.51L71.9976 169.568L71.8913 169.629L71.7799 169.694L71.6633 169.761L71.5418 169.831L71.4156 169.904L71.2846 169.98L71.1492 170.058L71.0095 170.138L70.8655 170.222L70.7175 170.307L70.5655 170.395L70.4099 170.485L70.2505 170.577L70.0877 170.671L69.9216 170.767L69.7523 170.864L69.5801 170.964L69.4049 171.065L69.227 171.168L69.0466 171.272L68.8636 171.377L68.6784 171.484L68.491 171.592L68.3016 171.702L68.1104 171.812L67.9175 171.924L67.723 172.036L67.5271 172.149L67.33 172.263L67.1318 172.377L66.9326 172.492L66.7324 172.608L66.5317 172.724L66.3305 172.84L66.1288 172.956L65.927 173.073L65.7251 173.189L65.5232 173.306L65.3215 173.422L65.1201 173.539L64.9193 173.655L64.7192 173.77L64.5198 173.885L64.3214 174L64.124 174.114L63.9279 174.227L63.7332 174.339L63.54 174.451L63.3485 174.562L63.1588 174.671L62.9711 174.779L62.7855 174.887L62.6022 174.992L62.4212 175.097L62.2429 175.2L62.0672 175.301L61.8945 175.401L61.7246 175.499L61.558 175.595L61.3947 175.69L61.2348 175.782L61.0785 175.872L60.9259 175.96L60.7772 176.046L60.6325 176.13L60.492 176.211L60.3558 176.289L60.2242 176.365L60.0971 176.439L59.9748 176.509L59.8574 176.577L59.7451 176.642L59.6379 176.704L59.5362 176.763L59.4399 176.818L59.3493 176.87L59.2644 176.919L59.1856 176.965L59.1128 177.007L59.0462 177.045L58.986 177.08L58.9323 177.111L58.8854 177.138L58.8452 177.161L58.8121 177.181L58.786 177.196L58.7672 177.207L58.7558 177.213L58.752 177.215" stroke="white" stroke-width="0.75" stroke-linejoin="round"/>
</svg>
