<svg width="200" height="200" viewBox="0 0 200 200" fill="none" xmlns="http://www.w3.org/2000/svg">
    <path d="M178.127 54.9417L100.008 99.8736L21.8887 54.9417L100.008 10.0098L178.127 54.9417Z" stroke="white" stroke-width="0.75" stroke-linecap="round" stroke-linejoin="round"/>
    <path d="M131.328 37.4006L100.009 55.4125L68.6895 37.4006L100.009 19.3867L131.328 37.4006Z" stroke="white" stroke-width="0.75" stroke-linecap="round" stroke-linejoin="round"/>
    <path d="M100.008 99.873V55.4124L131.327 37.4004V81.8592L100.008 99.873Z" stroke="white" stroke-width="0.75" stroke-linecap="round" stroke-linejoin="round"/>
    <path d="M68.6895 37.4004V81.8592L100.009 99.873V55.4124L68.6895 37.4004Z" stroke="white" stroke-width="0.75" stroke-linecap="round" stroke-linejoin="round"/>
    <path d="M30.2305 59.7409L61.2557 41.7949L68.6878 46.1094" stroke="white" stroke-width="0.75" stroke-linecap="round" stroke-linejoin="round"/>
    <path d="M100.008 19.3871V10.0098" stroke="white" stroke-width="0.75" stroke-linecap="round" stroke-linejoin="round"/>
    <path d="M169.783 59.7409L138.756 41.7949L131.326 46.1094" stroke="white" stroke-width="0.75" stroke-linecap="round" stroke-linejoin="round"/>
    <path d="M21.8887 54.9414L100.008 99.8733V189.992L22.1827 144.805L21.8887 54.9414Z" stroke="white" stroke-width="0.75" stroke-linecap="round" stroke-linejoin="round"/>
    <path d="M30.2441 103.986L61.5049 122.102L61.5634 158.231L30.3044 140.116L30.2441 103.986Z" stroke="white" stroke-width="0.75" stroke-linecap="round" stroke-linejoin="round"/>
    <path d="M100.007 99.8734L61.5049 122.102L30.2441 103.986L68.7467 81.7559L100.007 99.8734Z" stroke="white" stroke-width="0.75" stroke-linecap="round" stroke-linejoin="round"/>
    <path d="M61.5643 158.231L100.067 136.003L100.008 99.873L61.5059 122.101L61.5643 158.231Z" stroke="white" stroke-width="0.75" stroke-linecap="round" stroke-linejoin="round"/>
    <path d="M100.139 180.367L69.084 162.47L69.1066 153.877" stroke="white" stroke-width="0.75" stroke-linecap="round" stroke-linejoin="round"/>
    <path d="M30.3055 140.115L22.1836 144.805" stroke="white" stroke-width="0.75" stroke-linecap="round" stroke-linejoin="round"/>
    <path d="M30.3622 59.7402L30.334 95.3533L37.7868 99.6319" stroke="white" stroke-width="0.75" stroke-linecap="round" stroke-linejoin="round"/>
    <path d="M100.008 189.992V99.8733L178.127 54.9414L177.831 144.805L100.008 189.992Z" stroke="white" stroke-width="0.75" stroke-linecap="round" stroke-linejoin="round"/>
    <path d="M138.451 158.231L138.51 122.102L169.769 103.986L169.71 140.116L138.451 158.231Z" stroke="white" stroke-width="0.75" stroke-linecap="round" stroke-linejoin="round"/>
    <path d="M100.008 99.873L138.51 122.101L138.452 158.231L99.9473 136.003L100.008 99.873Z" stroke="white" stroke-width="0.75" stroke-linecap="round" stroke-linejoin="round"/>
    <path d="M169.769 103.986L131.267 81.7559L100.008 99.8734L138.51 122.102L169.769 103.986Z" stroke="white" stroke-width="0.75" stroke-linecap="round" stroke-linejoin="round"/>
    <path d="M169.651 59.7402L169.679 95.3533L162.227 99.6319" stroke="white" stroke-width="0.75" stroke-linecap="round" stroke-linejoin="round"/>
    <path d="M169.711 140.115L177.831 144.805" stroke="white" stroke-width="0.75" stroke-linecap="round" stroke-linejoin="round"/>
    <path d="M99.875 180.367L130.93 162.47L130.908 153.877" stroke="white" stroke-width="0.75" stroke-linecap="round" stroke-linejoin="round"/>
</svg>