<svg width="200" height="200" viewBox="0 0 200 200" fill="none" xmlns="http://www.w3.org/2000/svg">
    <path d="M98.9141 58.6398C102.003 57.9923 105.207 57.6504 108.49 57.6504C133.742 57.6504 154.285 77.8131 154.898 102.917" stroke="white" stroke-width="0.75" stroke-linecap="round" stroke-linejoin="round"/>
    <path d="M86.6131 123.924C81.8505 118.679 78.9492 111.715 78.9492 104.073C78.9492 87.7572 92.1751 74.5312 108.49 74.5312C111.352 74.5312 114.118 74.9382 116.733 75.6961" stroke="white" stroke-width="0.75" stroke-linecap="round" stroke-linejoin="round"/>
    <path d="M166.89 80.9883C169.727 88.1565 171.472 95.8964 171.472 104.072C171.472 138.857 143.273 167.056 108.488 167.056C89.161 167.056 71.8653 158.351 60.3125 144.647" stroke="white" stroke-width="0.75" stroke-linecap="round" stroke-linejoin="round"/>
    <path d="M113.117 87.209C120.526 89.2385 125.972 96.0196 125.972 104.072C125.972 113.728 118.144 121.556 108.488 121.556C99.8458 121.556 92.6667 115.285 91.2559 107.044" stroke="white" stroke-width="0.75" stroke-linecap="round" stroke-linejoin="round"/>
    <path d="M70.4937 174.086C45.592 160.56 28.6074 134.403 28.6074 104.073C28.6074 59.9567 64.371 24.1914 108.489 24.1914C122.276 24.1914 135.437 28.055 146.754 34.2031" stroke="white" stroke-width="0.75" stroke-linecap="round" stroke-linejoin="round"/>
    <path d="M100.237 166.521C88.7369 175.041 77.9184 178.157 70.222 173.943C53.903 165.005 57.8046 126.478 78.9386 87.8891C100.073 49.302 130.433 25.2649 146.754 34.204C156.212 39.3844 158.878 54.5005 155.335 73.8076" stroke="white" stroke-width="0.75" stroke-linecap="round" stroke-linejoin="round"/>
    <path d="M131.167 90.5098C130.411 93.5467 128.521 97.2222 125.721 101.102" stroke="white" stroke-width="0.75" stroke-linecap="round" stroke-linejoin="round"/>
    <path d="M86.6262 123.911C82.6088 119.483 89.1386 107.011 101.212 96.0554C109.632 88.4151 118.526 83.5277 124.501 82.7734" stroke="white" stroke-width="0.75" stroke-linecap="round" stroke-linejoin="round"/>
    <path d="M103.861 120.938C96.0689 125.481 89.3203 126.879 86.627 123.911" stroke="white" stroke-width="0.75" stroke-linecap="round" stroke-linejoin="round"/>
    <path d="M94.2949 64.3223C101.351 65.7114 109.147 69.6528 116.729 75.6996" stroke="white" stroke-width="0.75" stroke-linecap="round" stroke-linejoin="round"/>
    <path d="M79.1439 107.494C77.156 103.907 75.5462 100.328 74.3379 96.8457" stroke="white" stroke-width="0.75" stroke-linecap="round" stroke-linejoin="round"/>
    <path d="M98.2955 130.839C96.3203 129.157 94.374 127.332 92.4766 125.371" stroke="white" stroke-width="0.75" stroke-linecap="round" stroke-linejoin="round"/>
    <path d="M116.73 75.6973C120.797 78.9404 124.772 82.7878 128.479 87.1705C135.216 95.14 140.059 103.69 142.775 111.698" stroke="white" stroke-width="0.75" stroke-linecap="round" stroke-linejoin="round"/>
    <path d="M143.135 73.1781C155.641 72.5812 164.58 75.1479 166.89 80.9903C171.401 92.402 148.909 111.988 116.654 124.736C110.387 127.214 104.21 129.251 98.2949 130.841" stroke="white" stroke-width="0.75" stroke-linecap="round" stroke-linejoin="round"/>
    <path d="M98.296 130.84C83.6249 134.785 70.5545 135.982 61.6426 134.338" stroke="white" stroke-width="0.75" stroke-linecap="round" stroke-linejoin="round"/>
</svg>