<svg xmlns="http://www.w3.org/2000/svg" fill="none" height="420" viewBox="0 0 420 420" width="420">
  <g stroke="#fff" stroke-linecap="round" stroke-linejoin="round" stroke-width="1.05">
    <path d="m119.861 133.049 127.911-16.422 14.188 164.604-128.114 17.027z"></path>
    <path d="m230.935 118.789v-4.594l-129.591 4.729-1.146 159.401 31.888-.884"></path>
    <path d="m100.355 256.497-27.3865-1.147 11.2145-152.302 130.614 5.406-.267 6.341"></path>
    <path d="m203.359 107.98.131-2.974-130.1825-15.6305-15.652 146.5795 16.5996 1.895"></path>
    <path d="m59.5585 218.107-10.0385-2.014 17.5218-141.2231 128.0252 25.1361-.343 3.947"></path>
    <path d="m198.397 104.397 2.707-21.4645-95.634-52.6119-1.519 15.4108"></path>
    <path d="m185.253 98.0813.491-5.6432-123.791-32.975-17.433 136.5359 7.2253 2.171"></path>
    <path d="m70.8528 61.8363 1.506-13.9938 117.2122 40.7207-1.074 10.1526"></path>
    <path d="m191.729 99.3504 1.582-14.1207-107.2116-47.3875-1.3199 14.3152"></path>
    <path d="m128.259 42.8551 2.436-16.1851 81.852 56.2204-4.057 25.3016"></path>
    <path d="m221.329 114.546 5.854-29.4516-67.794-58.4244-3.266 17.4626"></path>
    <path d="m186.129 49.7127 4.881-18.0422 53.069 58.9658-7.115 27.3787"></path>
    <path d="m249.456 136.175 13.135-36.08-16.841-25.5426-22.213-33.6941-7.158 19.0024"></path>
    <path d="m252.658 173.304 28.178-59.693-25.437-59.2497-9.649 20.1911"></path>
    <path d="m272.096 93.2505 13.469-21.7605 12.298 59.825-42.819 69.698"></path>
    <path d="m256.872 222.206 55.408-69.224.089-61.2206-18.026 22.4206"></path>
    <path d="m312.368 137.034 22.615-21.532-12.208 62.751-64.389 61.492"></path>
    <path d="m259.761 255.693 68.734-49.287 24.193-65.586-26.241 18.562"></path>
    <path d="m337.89 180.936 27.543-14.125-36.443 69.554-67.884 34.946"></path>
    <path d="m243.301 283.71-8.097 12.746 88.92-28.923 48.877-74.101-25.961 8.485"></path>
    <path d="m240.543 294.721-12.86 16.376 86.171-12.073 61.626-79.014-22.065 3.118"></path>
    <path d="m352.311 249.72 22.492.879-76.67 74.733-82.164-3.875 11.713-10.36"></path>
    <path d="m215.969 321.457-11.849 9.146 74.825 19.006 90.409-68.2-20.555-5.462"></path>
    <path d="m342.344 301.781 17.01 8.821-101.582 61.669-66.626-33.47 13.507-8.063"></path>
    <path d="m192.588 339.524-14.73 7.746 56.758 45.856 110.727-55.184-12.987-10.952"></path>
  </g>
</svg>