<svg xmlns="http://www.w3.org/2000/svg" fill="none" height="420" viewBox="0 0 420 420" width="420">
  <g stroke="#fff" stroke-linejoin="round" stroke-width="1.051">
    <path d="m110.964 285.963-45.7538-189.9396"></path>
    <path d="m136.815 311.096-6.077-37.592-22.539-139.416"></path>
    <path d="m159.373 332.335-3.043-33.535-11.936-131.572"></path>
    <path d="m177.26 348.327-.894-26.699-4.322-129.144"></path>
    <path d="m190.109 358.725.131-18.576.925-131.322"></path>
    <path d="m200.411 366.336.564-14.457 5.122-131.197"></path>
    <path d="m354.034 197.588-20.401 131.851"></path>
    <path d="m333.633 329.439-97.772 61.603"></path>
    <path d="m191.165 208.826 79.581-50.141 18.191-11.461"></path>
    <path d="m172.044 192.485 73.784-46.49 23.988-15.113"></path>
    <path d="m144.394 167.228 69.786-43.969 27.986-17.634"></path>
    <path d="m108.199 134.088 68.409-43.1008 29.363-18.5018"></path>
    <path d="m65.2102 96.0232 97.7718-61.6028"></path>
    <path d="m176.608 90.987-13.626-56.5666"></path>
    <path d="m205.971 72.4854 8.209 50.7736"></path>
    <path d="m242.166 105.625 3.662 40.37"></path>
    <path d="m269.816 130.882.93 27.803"></path>
    <path d="m130.738 273.504-19.774 12.459"></path>
    <path d="m156.33 298.801-19.515 12.296"></path>
    <path d="m288.937 147.224-.151 21.359"></path>
    <path d="m329.059 177.945-1.92 20.307"></path>
    <path d="m176.366 321.628-16.993 10.707"></path>
    <path d="m316.45 168.367-1.21 18.285"></path>
    <path d="m342.335 188.678-2.235 17.688"></path>
    <path d="m303.869 159.08-.689 17.647"></path>
    <path d="m190.24 340.148-12.98 8.179"></path>
    <path d="m229.249 371.514-11.102 6.996"></path>
    <path d="m200.975 351.879-10.866 6.846"></path>
    <path d="m237.741 378.893-10.239 6.451"></path>
    <path d="m219.33 366.003-10.074 6.347"></path>
    <path d="m210.056 360.26-9.645 6.077"></path>
    <path d="m218.678 229.969-8.622 130.291-.8 12.09"></path>
    <path d="m231.287 239.547-11.958 126.456-1.182 12.507"></path>
    <path d="m244.563 250.281-15.315 121.233-1.746 13.83"></path>
    <path d="m256.262 259.19-18.521 119.703-1.88 12.148"></path>
    <path d="m303.869 159.08-15.083 9.503-82.689 52.099"></path>
    <path d="m354.034 197.588-13.934 8.778-83.838 52.824"></path>
    <path d="m342.336 188.678-15.197 9.574-82.576 52.029"></path>
    <path d="m329.059 177.945-13.819 8.707-83.954 52.895"></path>
    <path d="m316.45 168.367-13.27 8.36-14.516 9.146-69.986 44.096"></path>
  </g>
</svg>