<svg xmlns="http://www.w3.org/2000/svg" fill="none" viewBox="0 0 420 420">
  <g stroke="#fff" stroke-linecap="round" stroke-linejoin="round" stroke-width="1.05">
    <path d="m166.465 35.7h-53.866l-14.4921 48.1233h53.8661z"></path>
    <path d="m173.23 48.5614h219.101l-14.229 48.6256h-218.039"></path>
    <path d="m108.729 104.029-10.6221-20.2059h53.8661"></path>
    <path d="m378.102 97.187 14.228-48.6256 6.67 14.1871-14.492 48.1235h-233.72"></path>
    <path d="m160.063 97.1868h-54.928"></path>
    <path d="m378.102 97.1868 6.406 13.6852"></path>
    <path d="m151.973 83.8231 7.024 13.3637"></path>
    <path d="m166.609 35.9718 6.62 12.5897"></path>
    <path d="m158.997 97.187 14.232-48.6256"></path>
    <path d="m147.189 104.029-2.062 6.842-12.429 41.281h-53.8669l14.4917-48.123z"></path>
    <path d="m153.949 116.89h219.106l-14.229 48.626h-218.043"></path>
    <path d="m127.914 172.358-2.059 6.843-12.433 41.28h-53.8707l14.4958-48.123z"></path>
    <path d="m89.4524 172.358-10.6218-20.206h53.8664"></path>
    <path d="m358.827 165.516 14.228-48.626 6.665 14.187-14.492 48.124h-233.72"></path>
    <path d="m140.783 165.516h-54.9285"></path>
    <path d="m358.826 165.516 6.402 13.684"></path>
    <path d="m132.697 152.152 7.024 13.364"></path>
    <path d="m147.329 104.301 6.62 12.589"></path>
    <path d="m139.721 165.516 14.228-48.626"></path>
    <path d="m134.674 185.22h219.101l-14.228 48.626h-218.039"></path>
    <path d="m70.1772 240.688-10.6259-20.206h53.8707"></path>
    <path d="m339.547 233.846 14.228-48.626 6.669 14.187-14.491 48.123h-233.721"></path>
    <path d="m121.508 233.846h-54.9289"></path>
    <path d="m339.546 233.846 6.406 13.685"></path>
    <path d="m113.422 220.482 7.023 13.364"></path>
    <path d="m128.054 172.63 6.62 12.59"></path>
    <path d="m120.445 233.846 14.229-48.626"></path>
    <path d="m108.634 240.688-2.058 6.843-12.4336 41.285h-53.8665l14.4958-48.128z"></path>
    <path d="m115.399 253.554h219.101l-14.229 48.621h-218.039"></path>
    <path d="m50.8977 309.018-10.6218-20.202h53.8665"></path>
    <path d="m320.271 302.179 14.228-48.625 6.67 14.183-14.492 48.123h-233.7205"></path>
    <path d="m102.232 302.175h-54.9283"></path>
    <path d="m320.271 302.175 6.406 13.685"></path>
    <path d="m94.1421 288.811 7.0279 13.364"></path>
    <path d="m108.778 240.96 6.62 12.594"></path>
    <path d="m101.17 302.175 14.228-48.621"></path>
    <path d="m89.3582 309.017-2.0585 6.842-12.4332 41.286h-53.8665l14.4917-48.128z"></path>
    <path d="m96.1182 321.883h219.1058l-14.229 48.625h-218.0429"></path>
    <path
      d="m82.9522 370.508h218.0428l14.229-48.625 6.665 14.183-14.492 48.127h-272.177l-14.22-27.048h53.8665"></path>
    <path d="m82.9521 370.509h-54.9287"></path>
    <path d="m300.995 370.509 6.402 13.684"></path>
    <path d="m74.8662 357.145 7.0236 13.363"></path>
    <path d="m89.5024 309.289 6.616 12.594"></path>
    <path d="m81.8901 370.508 14.2283-48.625"></path>
  </g>
</svg>