<svg xmlns="http://www.w3.org/2000/svg" class="css-6h5lqq" fill="none" viewBox="0 0 420 420">
  <g stroke="#fff" stroke-linecap="round" stroke-linejoin="round" stroke-width="1.05">
    <path
      d="m232.539 248.82c-3.679-12.215-8.96-24.325-15.698-35.995-6.739-11.671-14.59-22.313-23.345-31.638-9.07-9.659-18.703-17.461-28.641-23.202-9.938-5.735-19.586-9.065-28.676-9.893-8.779-.799-16.671.754-23.449 4.617-.09.05-.175.1-.265.15l-56.1681 32.641c.0848-.05.1747-.1.2645-.15 6.7784-3.863 14.6698-5.416 23.4497-4.617 9.0943.828 18.7427 4.158 28.6759 9.893 9.938 5.736 19.571 13.543 28.64 23.202 8.755 9.325 16.612 19.967 23.345 31.638 6.739 11.67 12.02 23.78 15.698 35.995 3.814 12.654 5.73 24.859 5.695 36.275l-.179 63.879 56.168-32.641.18-63.879c.03-11.416-1.887-23.621-5.695-36.275z"></path>
    <path
      d="m105.418 234.698.074-26.246c0-.963.025-1.917.065-2.855-14.6345-7.588-28.306-8.516-38.7729-2.546-11.2058 6.384-17.4051 19.897-17.455 38.047l-.1797 63.879 19.2269-11.171"></path>
    <path
      d="m108.692 190.631c9.938 5.736 19.571 13.543 28.641 23.202 8.755 9.325 16.611 19.967 23.345 31.638 6.738 11.67 12.019 23.78 15.697 35.995 3.814 12.654 5.731 24.859 5.696 36.275l-.18 63.879-14.495-8.366.18-63.879c.05-18.15-6.05-38.761-17.181-58.044-11.131-19.278-25.96-34.922-41.753-44.042-15.7927-9.12-30.6622-10.623-41.8629-4.238-11.2057 6.384-17.405 19.897-17.4549 38.047l-.1797 63.879-14.4951-8.366.1797-63.879c.03-11.416 2.0115-21.375 5.8849-29.591 3.7336-7.932 9.0694-13.917 15.8527-17.781 6.7783-3.864 14.6697-5.416 23.4496-4.617 9.0944.828 18.7428 4.158 28.6757 9.893z"></path>
    <path
      d="m304.62 217.168c-4.587-15.225-11.171-30.325-19.566-44.871-8.396-14.546-18.189-27.814-29.1-39.434-11.306-12.036-23.315-21.769-35.699-28.918-12.383-7.1528-24.413-11.3009-35.748-12.3342-10.941-.9984-20.779.9384-29.23 5.7555-.11.0599-.22.1248-.324.1896l-55.7694 32.4511c.1098-.065.2196-.125.3244-.189 8.45-4.817 18.289-6.754 29.23-5.756 11.335 1.033 23.36 5.182 35.748 12.335 12.384 7.153 24.398 16.882 35.699 28.917 10.911 11.621 20.704 24.889 29.1 39.435 8.395 14.545 14.984 29.64 19.566 44.87 4.752 15.774 7.143 30.984 7.098 45.22l-.225 63.9 55.769-32.452.225-63.899c.04-14.231-2.351-29.446-7.098-45.22z"></path>
    <path
      d="m73.2031 175.682c1.0832-8.826 3.2694-16.758 6.5388-23.701 4.657-9.889 11.3055-17.347 19.756-22.164 8.4501-4.817 18.2881-6.753 29.2301-5.755 11.335 1.033 23.359 5.181 35.748 12.335 12.384 7.153 24.398 16.882 35.699 28.917 10.911 11.62 20.704 24.888 29.1 39.434 8.395 14.546 14.984 29.641 19.566 44.871 4.752 15.774 7.138 30.984 7.098 45.22l-.225 63.9-17.665-9.759"></path>
    <path
      d="m376.601 190.457c-5.55-18.425-13.517-36.694-23.679-54.295-10.163-17.601-22.007-33.654-35.214-47.7162-13.677-14.5659-28.212-26.3414-43.196-34.9921s-29.539-13.6724-43.256-14.9253c-13.242-1.208-25.141 1.1331-35.369 6.9635-.13.0748-54.87 31.7175-54.87 31.7175.129-.0749.264-.1498.394-.2296 10.227-5.8304 22.127-8.1715 35.369-6.9635 13.716 1.2529 28.266 6.2696 43.256 14.9253 14.984 8.6507 29.519 20.4264 43.195 34.9924 13.208 14.061 25.052 30.115 35.215 47.716 10.162 17.601 18.128 35.87 23.679 54.295 5.75 19.083 8.64 37.493 8.59 54.714l-.274 60.246 54.471-31.488.274-60.246c.05-17.221-2.84-35.631-8.59-54.714z"></path>
    <path
      d="m111.163 123.024c1.478-6.959 3.594-13.383 6.344-19.224 5.635-11.9648 13.682-20.9899 23.909-26.8202 10.227-5.8304 22.127-8.1715 35.369-6.9635 13.717 1.2529 28.267 6.2696 43.256 14.9253 14.984 8.6507 29.519 20.4264 43.195 34.9924 13.208 14.061 25.052 30.115 35.215 47.716 10.162 17.601 18.129 35.87 23.679 54.295 5.75 19.083 8.64 37.493 8.59 54.714l-.269 60.246-18.958-10.623"></path>
    <path
      d="m167.751 317.092c-9.808 14.521-26.425 24.071-45.267 24.071-30.1485 0-54.5914-24.445-54.5914-54.595s24.4429-54.595 54.5914-54.595c5.655 0 11.106.859 16.232 2.456"></path>
    <path d="m311.493 326.282 18.953 10.623"></path>
  </g>
</svg>
