<svg xmlns="http://www.w3.org/2000/svg" class="web-app-emotion-cache-6h5lqq" fill="none" viewBox="0 0 420 420">
  <g stroke="#fff" stroke-linejoin="round" stroke-width="1.05053">
    <path d="m136.234 299.06h-74.1891"></path>
    <path d="m136.234 329.348h-74.1891"></path>
    <path d="m136.233 224.816h-74.1891"></path>
    <path d="m247.517 336.182h-74.189"></path>
    <path d="m173.328 127.058h74.189"></path>
    <path d="m173.328 187.694 74.189.015.027-.015"></path>
    <path d="m358.801 299.06h-74.191"></path>
    <path d="m136.233 224.871h-74.1891"></path>
    <path d="m62.0439 150.627h74.1891"></path>
    <path d="m247.516 261.993-74.188-.014-.028.014-37.053 37.067-.014.028"></path>
    <path d="m247.517 366.47h-74.189"></path>
    <path d="m173.328 52.8696h74.189"></path>
    <path d="m173.328 157.346h74.189"></path>
    <path d="m247.517 217.982h-74.189"></path>
    <path d="m358.801 329.348h-74.191"></path>
    <path d="m358.801 224.816h-74.191"></path>
    <path d="m358.801 224.871h-74.191"></path>
    <path d="m358.801 150.627-74.19-.012-.028.012-37.066 37.067"></path>
    <path d="m24.9502 187.721 37.0943-37.094"></path>
    <path d="m284.611 224.871-15.115 15.116-21.979 21.978"></path>
    <path d="m62.0445 299.06-37.0943-37.094"></path>
    <path d="m173.328 366.469-37.095-37.094"></path>
    <path d="m136.233 89.9637 37.095-37.0941"></path>
    <path d="m62.0445 224.816-37.0943-37.095"></path>
    <path d="m136.233 120.25 15.175 15.176 21.92 21.921"></path>
    <path d="m284.611 150.627-37.08 37.067-.014.027v30.261.027"></path>
    <path d="m136.233 89.9639 37.095 37.0941"></path>
    <path d="m62.0445 329.347-37.0943-37.094"></path>
    <path d="m173.328 261.993-37.081 37.067-.014.028v30.26.027"></path>
    <path d="m136.233 224.816 37.095-37.095"></path>
    <path d="m284.611 299.087-37.094 37.095"></path>
    <path d="m395.895 261.966-37.094 37.094"></path>
    <path d="m395.895 187.721-37.094 37.095"></path>
    <path d="m173.328 187.721-.014-.027-37.067-37.067-.014-.027"></path>
    <path d="m284.611 329.375-37.094 37.094"></path>
    <path d="m173.328 336.182-37.095-37.095"></path>
    <path d="m247.517 127.058 37.094-37.0941"></path>
    <path d="m247.517 187.721 37.094 37.095"></path>
    <path d="m395.895 292.253-37.094 37.094"></path>
    <path d="m358.801 150.627 37.094 37.094"></path>
    <path d="m247.517 52.8696 37.094 37.0941"></path>
    <path d="m247.517 157.347 21.92-21.921 15.174-15.176"></path>
    <path d="m284.611 299.088-.028-.028-37.066-37.067"></path>
    <path d="m173.328 261.965-21.978-21.978-15.117-15.116"></path>
    <path d="m46.9282 239.988-21.978-21.979"></path>
    <path d="m247.517 218.009 21.979 21.979"></path>
    <path d="m151.35 239.988 21.978-21.979"></path>
    <path d="m395.894 218.009-21.979 21.979"></path>
    <path d="m173.328 366.47v-30.288"></path>
    <path d="m24.9502 292.253v-30.287"></path>
    <path d="m284.61 89.9639v30.2871"></path>
    <path d="m395.895 261.966v30.287"></path>
    <path d="m395.895 187.721v30.288"></path>
    <path d="m247.517 127.058v30.288"></path>
    <path d="m173.328 157.346v-30.288"></path>
    <path d="m62.0449 329.348v-30.288"></path>
    <path d="m247.517 336.182v30.288"></path>
    <path d="m358.801 299.06v30.288"></path>
    <path d="m24.9502 218.009v-30.288"></path>
    <path d="m136.233 120.251v-30.2871"></path>
    <path d="m136.233 150.6 15.175-15.174"></path>
    <path d="m269.437 135.426 15.173 15.174"></path>
    <path d="m284.61 299.06v.028 30.26.027"></path>
    <path d="m284.611 299.06-37.067-37.067-.027-.027"></path>
    <path d="m173.328 218.009v-.027-30.261l-.014-.027-37.067-37.067-.014-.027"></path>
    <path d="m24.9502 261.965 21.978-21.978 15.1163-15.116"></path>
    <path d="m358.801 224.871 15.115 15.116 21.979 21.978"></path>
  </g>
</svg>